<svg xmlns="http://www.w3.org/2000/svg" xmlns:xlink="http://www.w3.org/1999/xlink" width="289.64px" height="289.64px" viewBox="0 0 289.64 289.64">
  <defs>
    <linearGradient id="homeLinearGradient" x1="145.08" y1="0.45" x2="145.08" y2="294.1" gradientTransform="translate(0 -220) rotate(40) scale(1.3)" gradientUnits="userSpaceOnUse">
      <stop offset="0" stop-color="#ff5b47"/>
      <stop offset="1" stop-color="#ffd200"/>
    </linearGradient>
  </defs>
  <path d="M273.62,207.63l-65.91,66a54.73,54.73,0,0,1-52.87,14.18l-90.08-24.1A54.76,54.76,0,0,1,26,225L1.87,134.9A54.76,54.76,0,0,1,16,82l65.91-66A54.75,54.75,0,0,1,134.81,1.86L224.88,26a54.74,54.74,0,0,1,38.72,38.7l24.17,90.07A54.74,54.74,0,0,1,273.62,207.63Z" fill="url(#homeLinearGradient)"/>
</svg>
